<svg width="25" height="26" viewBox="0 0 25 26" fill="none" xmlns="http://www.w3.org/2000/svg">
<path fill-rule="evenodd" clip-rule="evenodd" d="M20.9972 3.32635C21.2611 3.22407 21.5477 3.19535 21.8266 3.24327C22.1055 3.29119 22.3661 3.41394 22.5807 3.59843C22.7953 3.78291 22.9557 4.02221 23.0449 4.29076C23.1341 4.55931 23.1486 4.84703 23.0871 5.12323L23.0861 5.1276L23.0861 5.1276L19.4142 21.1628L19.4141 21.1632C19.3535 21.4273 19.2252 21.6711 19.0418 21.8707C18.8584 22.0703 18.6263 22.2187 18.3683 22.3015C18.1102 22.3842 17.835 22.3984 17.5698 22.3427C17.3051 22.287 17.0594 22.1636 16.8567 21.9846C16.8563 21.9842 16.8559 21.9838 16.8555 21.9835L8.23512 14.3987L3.23522 13.395L3.232 13.3943C1.73022 13.0863 1.49944 10.9827 2.96722 10.4075L3.25227 11.1348L2.96668 10.4077L2.96722 10.4075L20.994 3.3276L20.9972 3.32635ZM3.54224 11.8603C3.54237 11.8612 3.54253 11.8621 3.54271 11.863C3.54346 11.8631 3.54426 11.8633 3.54513 11.8635C3.54541 11.8636 3.54569 11.8636 3.54598 11.8637L8.74784 12.9079C8.88226 12.9349 9.00721 12.9968 9.11014 13.0874L17.8894 20.812L17.8912 20.8136L21.562 4.7832L3.54224 11.8603ZM3.53479 11.8605C3.53479 11.8605 3.5348 11.8605 3.53483 11.8605L3.53479 11.8605Z" fill="#FCFCFC"/>
<path fill-rule="evenodd" clip-rule="evenodd" d="M22.5182 3.61623C22.7708 3.96601 22.692 4.45436 22.3423 4.707L9.05124 14.3066C8.70146 14.5592 8.21311 14.4805 7.96048 14.1307C7.70784 13.7809 7.7866 13.2926 8.13638 13.0399L21.4274 3.44033C21.7772 3.1877 22.2655 3.26646 22.5182 3.61623Z" fill="#FCFCFC"/>
<path fill-rule="evenodd" clip-rule="evenodd" d="M8.59375 12.8932C9.02522 12.8932 9.375 13.243 9.375 13.6744L9.375 20.0306L9.3792 20.0263L12.4261 16.9794C12.7312 16.6743 13.2258 16.6743 13.5309 16.9794C13.836 17.2845 13.836 17.7792 13.5309 18.0843L10.4858 21.1294C10.2688 21.3488 9.99162 21.499 9.68926 21.5611C9.38577 21.6234 9.07059 21.5941 8.7838 21.4769C8.497 21.3597 8.25153 21.1598 8.07858 20.9027C7.90564 20.6457 7.81302 20.343 7.8125 20.0332L7.8125 13.6744C7.8125 13.243 8.16228 12.8932 8.59375 12.8932Z" fill="#FCFCFC"/>
</svg>
