<svg width="25" height="26" fill="none" xmlns="http://www.w3.org/2000/svg"><path fill-rule="evenodd" clip-rule="evenodd" d="M20.997 3.326a1.563 1.563 0 012.09 1.797v.005l-3.673 16.035a1.562 1.562 0 01-2.557.822l-.002-.002-8.62-7.584-5-1.004h-.003c-1.502-.309-1.733-2.412-.265-2.987l.285.727-.285-.727 18.027-7.08.003-.002zM3.542 11.86v.003h.004l5.202 1.045c.134.027.26.089.362.18l8.78 7.724.001.002 3.671-16.03-18.02 7.076zm-.007 0z" fill="#FCFCFC"/><path fill-rule="evenodd" clip-rule="evenodd" d="M22.518 3.616a.781.781 0 01-.176 1.091l-13.29 9.6a.781.781 0 11-.916-1.267l13.291-9.6a.781.781 0 011.091.176z" fill="#FCFCFC"/><path fill-rule="evenodd" clip-rule="evenodd" d="M8.594 12.893c.431 0 .781.35.781.781v6.357l.004-.005 3.047-3.047a.781.781 0 111.105 1.105l-3.045 3.045a1.562 1.562 0 01-2.674-1.096v-6.359c0-.431.35-.78.782-.78z" fill="#FCFCFC"/></svg>